<svg xmlns="http://www.w3.org/2000/svg" width="16.99" height="20.432" viewBox="0 0 16.99 20.432">
  <path id="Fill_1172" data-name="Fill 1172" d="M8.5,20.432A3.453,3.453,0,0,1,5,17.026H2.622A2.6,2.6,0,0,1,.251,15.555a2.48,2.48,0,0,1,.36-2.717l.359-.421A5.879,5.879,0,0,0,2.387,8.6v-.94a5.871,5.871,0,0,1,1.508-3.92A6.149,6.149,0,0,1,7.622,1.763V.851a.873.873,0,0,1,1.746,0v.912A6.149,6.149,0,0,1,13.1,3.742,5.871,5.871,0,0,1,14.6,7.662V8.6a5.879,5.879,0,0,0,1.417,3.815l.359.421a2.48,2.48,0,0,1,.36,2.717,2.6,2.6,0,0,1-2.371,1.471H11.986A3.453,3.453,0,0,1,8.5,20.432ZM6.75,17.026a1.746,1.746,0,0,0,3.491,0ZM8.5,3.4A4.316,4.316,0,0,0,4.132,7.662V8.6a7.56,7.56,0,0,1-1.821,4.9l-.36.421a.826.826,0,0,0-.12.905.867.867,0,0,0,.791.491H14.368a.867.867,0,0,0,.791-.49.827.827,0,0,0-.12-.906l-.36-.421a7.561,7.561,0,0,1-1.821-4.9v-.94A4.316,4.316,0,0,0,8.5,3.4Z" fill="#92929d"/>
</svg>
