<svg xmlns="http://www.w3.org/2000/svg" width="29.054" height="19.422" viewBox="0 0 29.054 19.422">
  <g id="Layer_2" data-name="Layer 2" transform="translate(0.082 0.082)">
    <g id="Layer_1" data-name="Layer 1" transform="translate(0.018 0.018)">
      <rect id="Rectangle_2458" data-name="Rectangle 2458" width="28.854" height="19.222" rx="3" fill="#f0f0f0" stroke="#e4e4ef" stroke-width="0.2"/>
      <path id="Path_6715" data-name="Path 6715" d="M16.243.01H12.631V7.815H.01v3.612H12.631v7.805h3.612V11.427H28.864V7.815H16.243Z" transform="translate(-0.01 -0.01)" fill="#d80027"/>
      <path id="Path_6716" data-name="Path 6716" d="M4.376,2.1V.99H3.267V2.1H2.14V3.207H3.267V4.334H4.376V3.207H5.5V2.1Z" transform="translate(2.355 0.821)" fill="#d80027"/>
      <path id="Path_6717" data-name="Path 6717" d="M12.2,2.1V.99H11.069V2.1H9.96V3.207h1.109V4.334H12.2V3.207H13.3V2.1Z" transform="translate(11.034 0.821)" fill="#d80027"/>
      <path id="Path_6718" data-name="Path 6718" d="M4.376,7.6V6.49H3.267V7.6H2.14V8.707H3.267V9.834H4.376V8.707H5.5V7.6Z" transform="translate(2.355 7.596)" fill="#d80027"/>
      <path id="Path_6719" data-name="Path 6719" d="M12.2,7.6V6.49H11.069V7.6H9.96V8.707h1.109V9.834H12.2V8.707H13.3V7.6Z" transform="translate(11.034 7.596)" fill="#d80027"/>
    </g>
  </g>
</svg>
