<svg xmlns="http://www.w3.org/2000/svg" width="195.962" height="169.325" viewBox="0 0 195.962 169.325">
  <g id="Group_5264" data-name="Group 5264" transform="translate(-196.02 -504.809)">
    <path id="Path_9935" data-name="Path 9935" d="M287.341,665.109a76.505,76.505,0,1,0-76.505-76.347A76.567,76.567,0,0,0,287.341,665.109Z" transform="translate(7.934 4.232)" fill="#f5f5f8" stroke="#e5e5ed" stroke-width="2"/>
    <path id="Path_9936" data-name="Path 9936" d="M328.723,555.021v56.747a6.341,6.341,0,0,1-6.323,6.323H232.459a6.341,6.341,0,0,1-6.323-6.323V555.021a6.446,6.446,0,0,1,6.323-6.323H322.4a6.582,6.582,0,0,1,6.007,3.952A9.568,9.568,0,0,1,328.723,555.021Z" transform="translate(16.819 25.486)" fill="#f1f3f9" stroke="#d6dce8" stroke-width="2"/>
    <path id="Path_9937" data-name="Path 9937" d="M322.957,552.493a6.268,6.268,0,1,0-8.852-.474A6.125,6.125,0,0,0,322.957,552.493Z" transform="translate(67.002 21.374)" fill="#f1f3f9"/>
    <path id="Path_9938" data-name="Path 9938" d="M321.006,532.646a2.573,2.573,0,1,0-3.478-3.794,2.684,2.684,0,0,0-.158,3.636A2.529,2.529,0,0,0,321.006,532.646Z" transform="translate(69.427 13.559)" fill="#f1f3f9"/>
    <path id="Path_9939" data-name="Path 9939" d="M278.733,507.953a1.792,1.792,0,1,0-2.529-.158A1.773,1.773,0,0,0,278.733,507.953Z" transform="translate(45.627 0)" fill="#f1f3f9"/>
    <path id="Path_9940" data-name="Path 9940" d="M335.818,543.428l-22.446,39.833a2.812,2.812,0,0,1-3.794.948l-38.253-22.288a2.813,2.813,0,0,1-.948-3.794l29.559-50.74a2.813,2.813,0,0,1,3.794-.948l27.82,16.281Z" transform="translate(42.285 0.722)" fill="#fff" stroke="#e5e5ed" stroke-width="2"/>
    <path id="Path_9941" data-name="Path 9941" d="M311.2,516.5l-6.323,10.749a3.447,3.447,0,0,0,1.106,4.426l9.642,5.532" transform="translate(62.321 6.787)" fill="#d6dce8"/>
    <path id="Path_9942" data-name="Path 9942" d="M295.489,523.156a7.086,7.086,0,0,1,1.739-.158h1.9c.632.158,1.423.316,2.055.474.79.316,1.423.632,2.055.949a9.64,9.64,0,0,1,2.529,1.9,5.6,5.6,0,0,1,1.423,2.529,7.4,7.4,0,0,1,.316,2.687,8.412,8.412,0,0,1-2.529,4.9,7.472,7.472,0,0,1-1.9,1.107,4.209,4.209,0,0,1-1.9.474l-1.739.158a6.957,6.957,0,0,0-1.581.316,2.547,2.547,0,0,0-1.106.632l-1.739,2.371-3-1.581,1.265-3a3.8,3.8,0,0,1,.948-1.265,5.612,5.612,0,0,1,1.423-.632c.632-.158,1.107-.158,1.739-.316a7.934,7.934,0,0,0,1.9-.316,7.7,7.7,0,0,0,1.739-.632,2.789,2.789,0,0,0,1.265-1.423,10.907,10.907,0,0,0,.474-1.264,2.342,2.342,0,0,0-.158-1.107,2.548,2.548,0,0,0-.632-1.107,6.87,6.87,0,0,0-1.107-.948,5.841,5.841,0,0,0-1.739-.79,4.374,4.374,0,0,0-1.423-.158H296.6a.951.951,0,0,1-.632-.158,1.3,1.3,0,0,1-.632-.949ZM286.8,545.444a4.19,4.19,0,0,1,.79-.948c.316-.158.632-.474.948-.474a3.159,3.159,0,0,1,2.371.316,4.19,4.19,0,0,1,.948.79l.474.948a3.1,3.1,0,0,1-2.055,3.794,4.143,4.143,0,0,1-2.371-.316,4.187,4.187,0,0,1-.948-.79c-.158-.316-.474-.632-.474-.948a1.35,1.35,0,0,1,0-1.106A2.449,2.449,0,0,1,286.8,545.444Z" transform="translate(51.791 10.562)" fill="#d6dce8"/>
    <path id="Path_9943" data-name="Path 9943" d="M234.261,519.263l25.765,26.714a2.445,2.445,0,0,1-.158,3.319l-26.239,24.659a2.444,2.444,0,0,1-3.319-.158l-32.562-34.617a2.445,2.445,0,0,1,.158-3.319L216.873,518Z" transform="translate(0 7.658)" fill="#fff" stroke="#e5e5ed" stroke-width="2"/>
    <path id="Path_9944" data-name="Path 9944" d="M209.636,517.9l7.113,7.429a2.883,2.883,0,0,0,3.794,0l6.481-6.165" transform="translate(7.237 7.6)" fill="#d6dce8"/>
    <path id="Path_9945" data-name="Path 9945" d="M210.836,535.185a4.617,4.617,0,0,1,.316-1.423l.474-1.423a6.408,6.408,0,0,1,.79-1.423,10.231,10.231,0,0,1,1.265-1.423,6.015,6.015,0,0,1,2.055-1.423,4.868,4.868,0,0,1,2.055-.474,9.257,9.257,0,0,1,2.055.316,13.181,13.181,0,0,1,1.9,1.265,4.091,4.091,0,0,1,1.106,1.739c.158.474.316,1.107.474,1.739v1.581c-.158.474-.158.948-.316,1.423,0,.474-.158.79-.158,1.265a1.162,1.162,0,0,0,.316.949l1.265,1.9-1.9,1.739-1.9-1.739a2.834,2.834,0,0,1-.79-1.106,3.481,3.481,0,0,1-.158-1.265c0-.474.158-.948.158-1.422a6.482,6.482,0,0,0,0-2.845,6.4,6.4,0,0,0-.79-1.423,1.578,1.578,0,0,0-.79-.632,2.005,2.005,0,0,0-.948-.158,2.245,2.245,0,0,0-.948.316,3.306,3.306,0,0,0-.948.632c-.316.316-.632.79-.948,1.106a7.708,7.708,0,0,0-.474,1.107,1.719,1.719,0,0,0-.158.79c0,.158-.158.316-.316.474-.158.316-.632.316-.948.158Zm15.491,11.855a3.452,3.452,0,0,1-.474-.79,2,2,0,0,1-.158-.948,2.538,2.538,0,0,1,.79-1.739,3.455,3.455,0,0,1,.79-.474,2,2,0,0,1,.948-.158,2.767,2.767,0,0,1,2.371,1.581,2.005,2.005,0,0,1,.158.948c0,.316-.158.632-.158.948a2.776,2.776,0,0,1-.632.79,1.344,1.344,0,0,1-.79.474,3.232,3.232,0,0,1-1.739,0C226.8,547.515,226.485,547.357,226.327,547.04Z" transform="translate(7.934 13.233)" fill="#d6dce8"/>
    <path id="Path_9946" data-name="Path 9946" d="M280.831,553.928l-9.958,35.565a2.178,2.178,0,0,1-2.845,1.423L233.41,580.8a2.178,2.178,0,0,1-1.423-2.845l13.436-45.682a2.179,2.179,0,0,1,2.845-1.423l25.133,7.271Z" transform="translate(20.135 15.04)" fill="#fff" stroke="#e5e5ed" stroke-width="2"/>
    <path id="Path_9947" data-name="Path 9947" d="M328.723,553.627v56.747A6.341,6.341,0,0,1,322.4,616.7H232.459a6.341,6.341,0,0,1-6.323-6.323V566.589h36.83a15.155,15.155,0,0,0,9.958-3.636l9.958-8.22a16.383,16.383,0,0,1,9.958-3.636h35.407A6.553,6.553,0,0,1,328.723,553.627Z" transform="translate(16.819 26.879)" fill="#aab3c5" opacity="0.1"/>
    <path id="Path_9948" data-name="Path 9948" d="M259.265,535.5l-3,9.958A2.98,2.98,0,0,0,258,548.776l8.694,2.687" transform="translate(34.272 17.82)" fill="#d6dce8"/>
    <path id="Path_9949" data-name="Path 9949" d="M247.223,544.188l1.423-.474a4.672,4.672,0,0,1,1.581-.316h1.739a7.925,7.925,0,0,1,1.9.316,8.009,8.009,0,0,1,2.371,1.106,7.5,7.5,0,0,1,1.581,1.581,9.675,9.675,0,0,1,.79,1.9,6.026,6.026,0,0,1-.158,2.371,5.341,5.341,0,0,1-.948,1.9,4.811,4.811,0,0,1-1.264,1.265,6.4,6.4,0,0,1-1.423.79l-1.423.79c-.316.158-.79.316-1.106.474a1.05,1.05,0,0,0-.632.79l-.948,2.055-2.687-.79.474-2.687a1.6,1.6,0,0,1,.632-1.107,2.835,2.835,0,0,1,1.107-.79,10.9,10.9,0,0,0,1.265-.474,5.62,5.62,0,0,0,1.423-.632,5.547,5.547,0,0,0,1.265-.79,3.057,3.057,0,0,0,.79-1.423,2.005,2.005,0,0,0,.158-.948,2.246,2.246,0,0,0-.316-.948c-.158-.316-.474-.474-.79-.79a7.694,7.694,0,0,0-1.106-.474,4.871,4.871,0,0,0-1.581-.158,2.689,2.689,0,0,0-1.106.158,6.846,6.846,0,0,0-.79.158c-.158,0-.316.158-.632,0a.68.68,0,0,1-.632-.632Zm-2.529,19.442c.158-.316.158-.632.474-.79.158-.316.474-.474.632-.632a2.29,2.29,0,0,1,1.739-.158,3.46,3.46,0,0,1,.79.474l.632.632a2.542,2.542,0,0,1-.948,3.319,2.29,2.29,0,0,1-1.739.158c-.316-.158-.632-.158-.79-.474-.316-.158-.474-.474-.632-.632-.158-.316-.158-.474-.316-.79A2.344,2.344,0,0,1,244.694,563.631Z" transform="translate(27.503 22.408)" fill="#d6dce8"/>
    <path id="Path_9950" data-name="Path 9950" d="M333.319,598.768l-32.562,17.7a2.135,2.135,0,0,1-3-.948l-16.439-31.772a2.264,2.264,0,0,1,.948-3L324.625,558.3a2.135,2.135,0,0,1,3,.948l11.855,23.078Z" transform="translate(48.736 30.898)" fill="#fff" stroke="#e5e5ed" stroke-width="2"/>
    <path id="Path_9951" data-name="Path 9951" d="M321.9,573.5l-9.168,4.742a2.951,2.951,0,0,0-1.106,3.636l4.11,8.061" transform="translate(66.317 39.887)" fill="#d6dce8"/>
    <path id="Path_9952" data-name="Path 9952" d="M309.917,570.8c.474.158.948.474,1.423.632a3.733,3.733,0,0,1,1.423.948l1.264,1.265a9.592,9.592,0,0,1,1.107,1.581,6.015,6.015,0,0,1,.79,2.371,11.889,11.889,0,0,1,0,2.371c-.316.632-.474,1.423-.79,1.9a6.889,6.889,0,0,1-1.739,1.423,4.483,4.483,0,0,1-2.055.632,3.852,3.852,0,0,1-1.9,0c-.632-.158-1.106-.316-1.581-.474l-1.423-.632c-.316-.158-.79-.316-1.106-.474a.974.974,0,0,0-1.107.158l-2.213.79-1.265-2.371,2.213-1.423a1.7,1.7,0,0,1,1.265-.316,2.35,2.35,0,0,1,1.423.316,9.393,9.393,0,0,1,1.265.632c.474.158.948.474,1.423.632a4.616,4.616,0,0,0,1.423.316,3.05,3.05,0,0,0,1.581-.474,2.512,2.512,0,0,0,1.265-1.581c.158-.316,0-.632,0-1.106a5.732,5.732,0,0,0-.474-1.107c-.158-.474-.632-.79-.948-1.423-.158-.158-.632-.632-.948-.632-.158-.158-.632-.316-.632-.474-.158-.158-.316-.158-.474-.474a.994.994,0,0,1,0-.948Zm-15.649,11.7a1.045,1.045,0,0,1,.948-.158c.316-.158.632,0,.948,0a3.442,3.442,0,0,1,1.423,1.106,2.005,2.005,0,0,1,.158.948v.948a2.789,2.789,0,0,1-1.265,1.423,2.005,2.005,0,0,1-.948.158h-.948a3.442,3.442,0,0,1-1.423-1.107v-1.106c-.158-.316,0-.632,0-.948a2.67,2.67,0,0,0,.316-.79A3.459,3.459,0,0,0,294.268,582.5Z" transform="translate(55.699 38.319)" fill="#d6dce8"/>
    <path id="Path_9953" data-name="Path 9953" d="M330.868,572.511v27.978a6.51,6.51,0,0,1-6.481,6.481h-92.47a6.51,6.51,0,0,1-6.481-6.481V570.3" transform="translate(16.412 38.028)" fill="none" stroke="#1676ee" stroke-linecap="round" stroke-linejoin="round" stroke-width="3"/>
    <path id="Path_9954" data-name="Path 9954" d="M326.361,560.4H294.748a13.582,13.582,0,0,0-8.378,3l-8.378,6.8a13.583,13.583,0,0,1-8.378,3h-36.04a6.545,6.545,0,0,0-6.639,6.481,2.006,2.006,0,0,0,.158.948l6.481,34.617a6.649,6.649,0,0,0,6.639,5.69h76.821a6.778,6.778,0,0,0,6.639-5.532l9.168-47.421a6.46,6.46,0,0,0-5.532-7.429A2,2,0,0,0,326.361,560.4Z" transform="translate(17.283 32.28)" fill="#fff"/>
    <path id="Path_9955" data-name="Path 9955" d="M339.1,556.4H301.167a15.155,15.155,0,0,0-9.958,3.636l-9.958,8.061a15.463,15.463,0,0,1-9.958,3.636H228.139a7.926,7.926,0,0,0-7.9,7.9,2.689,2.689,0,0,0,.158,1.106l7.9,41.888a8.128,8.128,0,0,0,7.9,6.955h91.68a7.991,7.991,0,0,0,7.9-6.639l10.907-57.379a7.76,7.76,0,0,0-6.481-9.01A2.69,2.69,0,0,0,339.1,556.4Z" transform="translate(13.393 29.957)" fill="#fff" stroke="#e5e5ed" stroke-width="2"/>
    <path id="Path_9956" data-name="Path 9956" d="M270.846,586.818a4.11,4.11,0,1,0-4.11-4.11A3.987,3.987,0,0,0,270.846,586.818Z" transform="translate(40.395 42.848)" fill="#d4d4e1"/>
    <path id="Path_9957" data-name="Path 9957" d="M271.124,590.463h-2.055a7.248,7.248,0,0,0-9.958-3.319,6.781,6.781,0,0,0-3.319,3.319h-2.055a9.188,9.188,0,0,1,17.388,0Z" transform="translate(32.846 46.158)" fill="#d4d4e1"/>
    <path id="Path_9958" data-name="Path 9958" d="M319.905,630.054c-1.9,0-1.265.158-15.491-14.068A20.532,20.532,0,1,1,309,611.244l13.278,13.278A3.306,3.306,0,0,1,319.905,630.054Zm-27.82-44.575a14.068,14.068,0,1,0,0,28.136,13.6,13.6,0,0,0,2.529-.158,13.171,13.171,0,0,0,2.371-.632,9.657,9.657,0,0,0,2.213-1.107,11.939,11.939,0,0,0,2.213-1.739,8.29,8.29,0,0,0,1.581-1.739c.474-.632.948-1.423,1.423-2.055a14.828,14.828,0,0,0,.948-2.371,6.343,6.343,0,0,0,.474-2.371,7.7,7.7,0,0,0,.158-1.9A13.865,13.865,0,0,0,292.085,585.479Z" transform="translate(43.182 43.081)" fill="#f5f5f8" stroke="#e5e5ed" stroke-width="2"/>
    <path id="Path_9959" data-name="Path 9959" d="M250.846,586.818a4.11,4.11,0,1,0-4.11-4.11A4.185,4.185,0,0,0,250.846,586.818Z" transform="translate(28.781 42.848)" fill="#d4d4e1"/>
  </g>
</svg>
