<svg xmlns="http://www.w3.org/2000/svg" width="19.94" height="16.594" viewBox="0 0 19.94 16.594">
  <path id="Fill_932" data-name="Fill 932" d="M16.659,16.594h-.833a.958.958,0,0,1-.833-1.045.958.958,0,0,1,.833-1.045h.833a.958.958,0,0,1,.833,1.045A.958.958,0,0,1,16.659,16.594Zm-6.664,0H9.162a.958.958,0,0,1-.833-1.045A.958.958,0,0,1,9.162,14.5h.833a.958.958,0,0,1,.833,1.045A.958.958,0,0,1,9.995,16.594Zm6.2-3.7h-6.6a2.5,2.5,0,0,1-2.4-1.757L4.542,2.2a.837.837,0,0,0-.8-.589H.833A.82.82,0,0,1,0,.806.82.82,0,0,1,.833,0H3.741a2.5,2.5,0,0,1,2.4,1.757l.434,1.467H17.44a2.511,2.511,0,0,1,1.983.946,2.348,2.348,0,0,1,.441,2.06l-1.249,4.834A2.483,2.483,0,0,1,16.19,12.892ZM7.054,4.834l1.731,5.859a.835.835,0,0,0,.8.588h6.6A.828.828,0,0,0,17,10.668l1.25-4.834a.781.781,0,0,0-.148-.684.838.838,0,0,0-.661-.315Z" fill="#fff"/>
</svg>
