<svg id="Symbols" xmlns="http://www.w3.org/2000/svg" width="182.842" height="31.444" viewBox="0 0 182.842 31.444">
  <g id="Menu-_-Top" data-name="Menu-/-Top">
    <g id="domenebi-logo">
      <path id="Shape" d="M14,10.985a8.133,8.133,0,0,1,.262-2.16,8.255,8.255,0,0,1,.785-1.9,9.819,9.819,0,0,1,1.244-1.636,7.711,7.711,0,0,1,1.636-1.244,9.666,9.666,0,0,1,1.9-.785A7.519,7.519,0,0,1,21.985,3a8.38,8.38,0,0,1,3.142.589,7.822,7.822,0,0,1,4.254,4.254,8.425,8.425,0,0,1,.655,3.142,8.134,8.134,0,0,1-.262,2.16,9.658,9.658,0,0,1-.785,1.9,9.812,9.812,0,0,1-1.244,1.636,7.715,7.715,0,0,1-1.636,1.244,9.658,9.658,0,0,1-1.9.785,7.517,7.517,0,0,1-2.16.262,8.128,8.128,0,0,1-2.16-.262,8.251,8.251,0,0,1-1.9-.785,9.82,9.82,0,0,1-1.636-1.244,7.707,7.707,0,0,1-1.244-1.636,7.043,7.043,0,0,1-.851-1.9A12.175,12.175,0,0,1,14,10.985Zm4.451,0a3.841,3.841,0,0,0,.262,1.505,4.739,4.739,0,0,0,.72,1.244,3.424,3.424,0,0,0,1.113.785,3.568,3.568,0,0,0,1.44.327,2.745,2.745,0,0,0,1.44-.327,3.423,3.423,0,0,0,1.113-.785,2.528,2.528,0,0,0,.655-1.244,5.58,5.58,0,0,0,.262-1.505,4.059,4.059,0,0,0-.262-1.505,3.755,3.755,0,0,0-.655-1.244,3.377,3.377,0,0,0-2.553-1.178,3.333,3.333,0,0,0-1.44.327,3.6,3.6,0,0,0-1.113.851,3.878,3.878,0,0,0-.72,1.244A3.841,3.841,0,0,0,18.451,10.985Z" transform="translate(4.785 1.025)" fill="#033"/>
      <path id="Shape-2" data-name="Shape" d="M11.52,18.654a7.151,7.151,0,0,1-.72.655c-.262.2-.589.393-.916.589a2.893,2.893,0,0,1-1.047.393,3.626,3.626,0,0,1-1.178.131,7.024,7.024,0,0,1-3.076-.655,7.743,7.743,0,0,1-2.422-1.7A8.5,8.5,0,0,1,0,12.371,8.5,8.5,0,0,1,2.16,6.676a6.488,6.488,0,0,1,2.422-1.7,7.811,7.811,0,0,1,3.076-.589A7.25,7.25,0,0,1,8.9,4.516a3.45,3.45,0,0,1,.982.327,3.711,3.711,0,0,1,.851.524,7.168,7.168,0,0,1,.72.655V.916a.84.84,0,0,1,.262-.655A.816.816,0,0,1,12.436,0h2.749a.59.59,0,0,1,.327.065c.131.065.2.131.327.2L16.1.524a.83.83,0,0,1,.065.393V19.178c0,.655-.327.916-.982.916H12.763a.83.83,0,0,1-.393-.065l-.2-.2c-.065-.065-.131-.2-.2-.262l-.2-.393ZM4.385,12.436a3.84,3.84,0,0,0,.262,1.505,4.74,4.74,0,0,0,.72,1.244,3.421,3.421,0,0,0,1.113.785,3.566,3.566,0,0,0,1.44.327,3.521,3.521,0,0,0,1.44-.262,3.713,3.713,0,0,0,1.178-.785,5.445,5.445,0,0,0,.851-1.178,3.567,3.567,0,0,0,.327-1.44v-.2a3.858,3.858,0,0,0-1.047-2.749,3.492,3.492,0,0,0-1.244-.851A3.882,3.882,0,0,0,7.92,8.509a3.567,3.567,0,0,0-1.44.327,3.6,3.6,0,0,0-1.113.851,3.879,3.879,0,0,0-.72,1.244A3.84,3.84,0,0,0,4.385,12.436Z" fill="#033"/>
      <path id="Shape-3" data-name="Shape" d="M138.418,16.811A8.575,8.575,0,0,1,136,18.381a7,7,0,0,1-2.814.589,8.381,8.381,0,0,1-3.142-.589,8.581,8.581,0,0,1-2.618-1.7,8.863,8.863,0,0,1-1.767-2.553A7.393,7.393,0,0,1,125,10.92a7.37,7.37,0,0,1,.262-2.094,9.427,9.427,0,0,1,.721-1.9,9.374,9.374,0,0,1,1.178-1.636,5.719,5.719,0,0,1,1.57-1.244,6.493,6.493,0,0,1,1.833-.785A7.359,7.359,0,0,1,132.658,3a6.762,6.762,0,0,1,1.964.262,7.232,7.232,0,0,1,1.767.785,6.679,6.679,0,0,1,1.505,1.178,8.553,8.553,0,0,1,1.178,1.505,8,8,0,0,1,.785,1.7,6.026,6.026,0,0,1,.262,1.9v1.047a1.1,1.1,0,0,1-.2.655,1.269,1.269,0,0,1-.589.327,5.669,5.669,0,0,1-1.178.065h-8.705a2.639,2.639,0,0,0,.523,1.309,3.515,3.515,0,0,0,.851.851,5.064,5.064,0,0,0,1.048.458,6.539,6.539,0,0,0,1.047.131,4.631,4.631,0,0,0,.916-.065,4.83,4.83,0,0,0,.916-.262c.262-.131.525-.2.786-.327a2.3,2.3,0,0,0,.589-.393c.13-.131.262-.2.327-.262a.486.486,0,0,1,.326-.065c.132,0,.2.065.327.131a1.711,1.711,0,0,1,.393.327l1.31,1.44a.878.878,0,0,0,.2.262c0,.065.066.2.066.262a.7.7,0,0,1-.132.393A2.226,2.226,0,0,0,138.418,16.811ZM132.593,6.665a2.09,2.09,0,0,0-.916.2,4.305,4.305,0,0,0-1.571,1.244,5.432,5.432,0,0,0-.523.785H135.8c-.2-.327-.327-.589-.523-.851a7.336,7.336,0,0,0-.655-.72,2.162,2.162,0,0,0-.851-.458A3.712,3.712,0,0,0,132.593,6.665Z" transform="translate(42.723 1.025)" fill="#033"/>
      <path id="Shape-4" data-name="Shape" d="M122.323,18.185c.066-.131.066-.327.132-.524V16.614a7.6,7.6,0,0,1-.721.72,6.926,6.926,0,0,1-.785.655,6.607,6.607,0,0,1-.982.458,3.936,3.936,0,0,1-1.31.2,8.038,8.038,0,0,1-3.075-.589,7.738,7.738,0,0,1-2.422-1.571,6.217,6.217,0,0,1-1.571-2.422A7.8,7.8,0,0,1,111,10.985a8.5,8.5,0,0,1,2.16-5.694,7.062,7.062,0,0,1,2.422-1.7A7.808,7.808,0,0,1,118.658,3a4.354,4.354,0,0,1,1.375.2,5.685,5.685,0,0,1,1.112.458,4.934,4.934,0,0,1,.916.72,10.062,10.062,0,0,1,.785.851l.327-1.113c.066-.131.066-.262.131-.393s.066-.2.13-.262a.917.917,0,0,1,.262-.2.834.834,0,0,1,.393-.065h1.833a.591.591,0,0,1,.327.065.883.883,0,0,1,.327.2c.066.065.2.2.2.262a.827.827,0,0,1,.066.393V16.549a8.09,8.09,0,0,1-.655,3.4,6.75,6.75,0,0,1-1.7,2.487,8.381,8.381,0,0,1-2.553,1.571,9.876,9.876,0,0,1-3.141.524,11.729,11.729,0,0,1-1.44-.131,12.323,12.323,0,0,1-1.505-.327,5.548,5.548,0,0,1-1.44-.589,8.253,8.253,0,0,1-1.244-.851c-.131-.065-.2-.2-.327-.327a.942.942,0,0,1-.131-.458,1.06,1.06,0,0,1,.262-.655l1.178-1.571a1.17,1.17,0,0,1,.327-.262.492.492,0,0,1,.327-.065,1.056,1.056,0,0,1,.655.262,2.7,2.7,0,0,0,.721.458,3.677,3.677,0,0,0,.785.262,3.828,3.828,0,0,0,.851.131h.721a8.115,8.115,0,0,0,1.178-.131,3.34,3.34,0,0,0,1.112-.458,3.181,3.181,0,0,0,.916-.72A1.508,1.508,0,0,0,122.323,18.185Zm-7-7.2a3.824,3.824,0,0,0,.262,1.505,4.721,4.721,0,0,0,.719,1.244,3.43,3.43,0,0,0,1.112.785,4.094,4.094,0,0,0,2.881,0,3.724,3.724,0,0,0,1.178-.785,5.436,5.436,0,0,0,.851-1.178,3.575,3.575,0,0,0,.327-1.44v-.393a3.575,3.575,0,0,0-.327-1.44,3.02,3.02,0,0,0-.851-1.178,3.722,3.722,0,0,0-1.178-.785,3.835,3.835,0,0,0-1.44-.327,3.571,3.571,0,0,0-1.441.327,2.826,2.826,0,0,0-1.112.851,3.866,3.866,0,0,0-.719,1.244A7.117,7.117,0,0,0,115.321,10.985Z" transform="translate(37.938 1.025)" fill="#033"/>
      <path id="Shape-5" data-name="Shape" d="M106,12.524a.927.927,0,0,1,.131-.393.549.549,0,0,1,.392-.131h3.207a.926.926,0,0,1,.393.131.4.4,0,0,1,.2.393v2.945a.927.927,0,0,1-.131.393.467.467,0,0,1-.393.2h-3.273c-.392,0-.523-.2-.523-.589Z" transform="translate(36.229 4.101)" fill="#9c6"/>
      <path id="Shape-6" data-name="Shape" d="M100,4.916a1.111,1.111,0,0,1,.2-.655A.76.76,0,0,1,100.851,4h2.815a.716.716,0,0,1,.327.065c.13.065.2.131.327.2a.659.659,0,0,1,.262.327.944.944,0,0,1,.13.393V18.465a.9.9,0,0,1-.262.72,1.192,1.192,0,0,1-.721.262h-2.814a.828.828,0,0,1-.916-.916Z" transform="translate(34.178 1.367)" fill="#033"/>
      <path id="Shape-7" data-name="Shape" d="M90.32,19.178l-.2.393c-.065.131-.131.2-.131.262l-.2.2c-.065.065-.2.065-.393.065H86.982c-.655,0-.982-.327-.982-.916V.916a.83.83,0,0,1,.065-.393.9.9,0,0,1,.2-.262c.065-.065.2-.131.262-.2A.59.59,0,0,1,86.851,0H89.6a.894.894,0,0,1,.72.262.84.84,0,0,1,.262.655V6.022a3.433,3.433,0,0,1,.72-.655,3.711,3.711,0,0,1,.851-.524,5.76,5.76,0,0,1,.982-.327,7.249,7.249,0,0,1,1.244-.131,8.045,8.045,0,0,1,3.076.589,7.743,7.743,0,0,1,2.422,1.7,8.5,8.5,0,0,1,2.16,5.694,8.5,8.5,0,0,1-2.16,5.694,6.488,6.488,0,0,1-2.422,1.7,7.833,7.833,0,0,1-3.076.655A7.221,7.221,0,0,1,93.2,20.29c-.393-.131-.72-.262-1.047-.393-.327-.2-.655-.393-.916-.589a7.146,7.146,0,0,1-.72-.655Zm7.4-6.807a4.059,4.059,0,0,0-.262-1.505,3.881,3.881,0,0,0-.72-1.244,3.377,3.377,0,0,0-2.553-1.178,3.883,3.883,0,0,0-1.505.327,5.246,5.246,0,0,0-1.244.851,4.027,4.027,0,0,0-.785,1.244,3.884,3.884,0,0,0-.327,1.505v.2a3.568,3.568,0,0,0,.327,1.44,3.03,3.03,0,0,0,.851,1.178,3.712,3.712,0,0,0,1.178.785,3.521,3.521,0,0,0,1.44.262,2.607,2.607,0,0,0,1.44-.327,3.424,3.424,0,0,0,1.113-.785,3.282,3.282,0,0,0,.72-1.244A3.884,3.884,0,0,0,97.716,12.371Z" transform="translate(29.393)" fill="#033"/>
      <path id="Shape-8" data-name="Shape" d="M86.418,16.811A8.567,8.567,0,0,1,84,18.381a7,7,0,0,1-2.814.589,8.38,8.38,0,0,1-3.142-.589,8.592,8.592,0,0,1-2.618-1.7,8.887,8.887,0,0,1-1.767-2.553A7.4,7.4,0,0,1,73,10.92a7.356,7.356,0,0,1,.262-2.094,9.467,9.467,0,0,1,.72-1.9A9.4,9.4,0,0,1,75.16,5.291a5.731,5.731,0,0,1,1.571-1.244,6.462,6.462,0,0,1,1.833-.785A7.354,7.354,0,0,1,80.658,3a6.756,6.756,0,0,1,1.964.262,7.242,7.242,0,0,1,1.767.785,6.665,6.665,0,0,1,1.505,1.178,8.522,8.522,0,0,1,1.178,1.505,8.037,8.037,0,0,1,.785,1.7,6.053,6.053,0,0,1,.262,1.9v1.047a1.105,1.105,0,0,1-.2.655,1.264,1.264,0,0,1-.589.327,5.668,5.668,0,0,1-1.178.065H77.385a2.636,2.636,0,0,0,.524,1.309,3.5,3.5,0,0,0,.851.851,5.064,5.064,0,0,0,1.047.458,6.525,6.525,0,0,0,1.047.131,4.635,4.635,0,0,0,.916-.065,4.829,4.829,0,0,0,.916-.262c.262-.131.524-.2.785-.327a2.289,2.289,0,0,0,.589-.393c.131-.131.262-.2.327-.262a.49.49,0,0,1,.327-.065c.131,0,.2.065.327.131a1.738,1.738,0,0,1,.393.327l1.309,1.44a.9.9,0,0,0,.2.262c0,.065.065.2.065.262a.7.7,0,0,1-.131.393A1.008,1.008,0,0,0,86.418,16.811ZM80.527,6.665a2.091,2.091,0,0,0-.916.2,3.709,3.709,0,0,0-.851.524,3.75,3.75,0,0,0-.72.72,5.458,5.458,0,0,0-.524.785h6.218a9.689,9.689,0,0,0-.524-.851,7.167,7.167,0,0,0-.655-.72,2.155,2.155,0,0,0-.851-.458A3.171,3.171,0,0,0,80.527,6.665Z" transform="translate(24.95 1.025)" fill="#033"/>
      <path id="Shape-9" data-name="Shape" d="M60.524,3.524c.131-.065.2-.131.327-.2.131,0,.2-.065.327-.065h1.833a.83.83,0,0,1,.393.065.9.9,0,0,1,.262.2,1.426,1.426,0,0,1,.2.327c.065.131.065.262.131.327l.262,1.047a3.076,3.076,0,0,1,.589-.785,3.812,3.812,0,0,1,.982-.72A6.69,6.69,0,0,1,67.2,3.2,7.3,7.3,0,0,1,68.967,3a6.03,6.03,0,0,1,2.487.524,4.993,4.993,0,0,1,1.833,1.44,5.74,5.74,0,0,1,1.178,2.16,8.748,8.748,0,0,1,.393,2.618v8.116a1.176,1.176,0,0,1-.2.72.873.873,0,0,1-.655.262H71.192a1.052,1.052,0,0,1-.72-.2.868.868,0,0,1-.2-.655V10a1.846,1.846,0,0,0-.262-.982,2.7,2.7,0,0,0-.655-.851,2.49,2.49,0,0,0-.851-.589,2.626,2.626,0,0,0-.982-.2,2.569,2.569,0,0,0-.916.2,3.71,3.71,0,0,0-.851.524,6.928,6.928,0,0,0-.655.785,2.8,2.8,0,0,0-.327,1.047v7.92a.83.83,0,0,1-.065.393.654.654,0,0,1-.262.327c-.131.065-.2.131-.327.131a2.838,2.838,0,0,1-.327.065H61.047a1.044,1.044,0,0,1-.785-.262A1.164,1.164,0,0,1,60,17.858V4.244a1.213,1.213,0,0,1,.131-.458,1.146,1.146,0,0,1,.262-.327Z" transform="translate(20.507 1.025)" fill="#033"/>
      <path id="Shape-10" data-name="Shape" d="M60.418,16.811A8.569,8.569,0,0,1,58,18.381a7,7,0,0,1-2.814.589,8.38,8.38,0,0,1-3.142-.589,8.592,8.592,0,0,1-2.618-1.7,8.887,8.887,0,0,1-1.767-2.553A7.4,7.4,0,0,1,47,10.92a7.356,7.356,0,0,1,.262-2.094,9.467,9.467,0,0,1,.72-1.9A9.4,9.4,0,0,1,49.16,5.291a5.732,5.732,0,0,1,1.571-1.244,6.463,6.463,0,0,1,1.833-.785A7.354,7.354,0,0,1,54.658,3a6.756,6.756,0,0,1,1.964.262,7.242,7.242,0,0,1,1.767.785,6.664,6.664,0,0,1,1.505,1.178,8.522,8.522,0,0,1,1.178,1.505,8.037,8.037,0,0,1,.785,1.7,6.054,6.054,0,0,1,.262,1.9v1.047a1.106,1.106,0,0,1-.2.655,1.266,1.266,0,0,1-.589.327,5.669,5.669,0,0,1-1.178.065H51.385a2.636,2.636,0,0,0,.524,1.309,3.5,3.5,0,0,0,.851.851,5.064,5.064,0,0,0,1.047.458,6.525,6.525,0,0,0,1.047.131,4.635,4.635,0,0,0,.916-.065,4.829,4.829,0,0,0,.916-.262c.262-.131.524-.2.785-.327a2.289,2.289,0,0,0,.589-.393c.131-.131.262-.2.327-.262a.49.49,0,0,1,.327-.065c.131,0,.2.065.327.131a1.738,1.738,0,0,1,.393.327l1.309,1.44a.9.9,0,0,0,.2.262c0,.065.065.2.065.262a.7.7,0,0,1-.131.393A3.189,3.189,0,0,0,60.418,16.811ZM54.592,6.665a2.09,2.09,0,0,0-.916.2,3.71,3.71,0,0,0-.851.524,3.747,3.747,0,0,0-.72.72,5.458,5.458,0,0,0-.524.785H57.8a9.687,9.687,0,0,0-.524-.851,7.15,7.15,0,0,0-.655-.72,2.155,2.155,0,0,0-.851-.458A3.707,3.707,0,0,0,54.592,6.665Z" transform="translate(16.064 1.025)" fill="#033"/>
      <path id="Shape-11" data-name="Shape" d="M28.393,3.589c.131-.065.2-.131.327-.2.131,0,.2-.065.327-.065H30.88a.83.83,0,0,1,.393.065.9.9,0,0,1,.262.2,1.431,1.431,0,0,1,.2.327c.065.131.065.262.131.327l.262,1.047a5.457,5.457,0,0,1,.524-.785,3.1,3.1,0,0,1,.851-.72,5.465,5.465,0,0,1,1.244-.524,6.4,6.4,0,0,1,1.7-.2,8.171,8.171,0,0,1,1.375.131A8.741,8.741,0,0,1,39,3.655a4.942,4.942,0,0,1,.916.72,6.427,6.427,0,0,1,.785.982,2.62,2.62,0,0,1,.72-.785,8.174,8.174,0,0,1,1.113-.785c.393-.2.916-.393,1.44-.589A6.6,6.6,0,0,1,45.607,3a5.507,5.507,0,0,1,2.422.524,4.558,4.558,0,0,1,1.7,1.44,6.641,6.641,0,0,1,1.047,2.16A11.466,11.466,0,0,1,51.1,9.742v8.182a1.176,1.176,0,0,1-.2.72.872.872,0,0,1-.655.262H47.439a1.053,1.053,0,0,1-.72-.2.869.869,0,0,1-.2-.655V9.938a5.051,5.051,0,0,0-.131-.982,2.263,2.263,0,0,0-.458-.785,2.908,2.908,0,0,0-.72-.524,2.091,2.091,0,0,0-.916-.2,1.812,1.812,0,0,0-.851.2,1.857,1.857,0,0,0-.72.524,2.353,2.353,0,0,0-.524.785,2.625,2.625,0,0,0-.2.982v7.985a1.176,1.176,0,0,1-.2.72.872.872,0,0,1-.655.262H38.342a1.053,1.053,0,0,1-.72-.2.869.869,0,0,1-.2-.655V9.938a5.05,5.05,0,0,0-.131-.982,2.263,2.263,0,0,0-.458-.785,2.052,2.052,0,0,0-.72-.524,2.09,2.09,0,0,0-.916-.2,2.015,2.015,0,0,0-.851.2,2.741,2.741,0,0,0-.785.524,4.085,4.085,0,0,0-.589.785,2.745,2.745,0,0,0-.262.982v8.051a.83.83,0,0,1-.065.393.653.653,0,0,1-.262.327c-.131.065-.2.131-.327.131a2.839,2.839,0,0,1-.327.065H29.047a1.043,1.043,0,0,1-.785-.262A1.163,1.163,0,0,1,28,17.989V4.309a1.213,1.213,0,0,1,.131-.458,1.146,1.146,0,0,1,.262-.327Z" transform="translate(9.57 1.025)" fill="#033"/>
      <path id="Shape-12" data-name="Shape" d="M4.262,21.823A.654.654,0,0,1,4,21.5a.481.481,0,0,1,.131-.393l1.833-2.88a.36.36,0,0,1,.327-.2.83.83,0,0,1,.393.065,17.474,17.474,0,0,0,4.647,2.095,18.835,18.835,0,0,0,5.105.655,18.835,18.835,0,0,0,5.105-.655,17.475,17.475,0,0,0,4.647-2.095c.131-.065.2-.131.327-.065a.36.36,0,0,1,.327.2l1.833,2.88a.93.93,0,0,1,.131.393.435.435,0,0,1-.262.327,22.3,22.3,0,0,1-5.694,2.553,22.909,22.909,0,0,1-12.829,0,22.736,22.736,0,0,1-5.76-2.553" transform="translate(1.367 6.152)" fill="#9c6"/>
    </g>
  </g>
</svg>
