<svg xmlns="http://www.w3.org/2000/svg" width="19.911" height="20" viewBox="0 0 19.911 20">
  <path id="Fill_943" data-name="Fill 943" d="M18.134,20H1.777a1.81,1.81,0,0,1-1.339-.594,1.685,1.685,0,0,1-.429-1.312A10.007,10.007,0,0,1,6.526,9.7a5.453,5.453,0,1,1,6.858,0,10.009,10.009,0,0,1,6.517,8.4,1.685,1.685,0,0,1-.429,1.312A1.81,1.81,0,0,1,18.134,20ZM9.956,10.909a8.164,8.164,0,0,0-8.129,7.273H18.084A8.164,8.164,0,0,0,9.956,10.909Zm0-9.091A3.636,3.636,0,1,0,13.59,5.455,3.64,3.64,0,0,0,9.956,1.818Z" transform="translate(0 0)" fill="#92929d"/>
</svg>
